<svg width="497" height="139" viewBox="0 0 497 139" fill="none" xmlns="http://www.w3.org/2000/svg">
<path d="M107.249 112.2H23.4093C21.2593 112.2 19.0393 111.98 16.7493 111.54C14.4493 111.1 12.2893 110.41 10.2593 109.47C8.22927 108.53 6.40928 107.32 4.79928 105.84C3.18928 104.36 1.96928 102.56 1.11928 100.45C0.269275 98.34 -0.0907234 95.9 0.0192766 93.11C0.129277 90.33 0.889275 87.19 2.29928 83.7L24.5093 28.73C25.2693 26.86 26.3293 24.84 27.7193 22.68C29.0993 20.52 30.7493 18.39 32.6793 16.28C34.5993 14.17 36.8193 12.16 39.3293 10.23C41.8293 8.30999 44.5993 6.59999 47.6093 5.11999C50.6193 3.63999 53.8893 2.44999 57.3993 1.56999C60.9093 0.68999 64.6693 0.23999 68.6593 0.23999H152.499L144.299 20.54H60.4593C57.4193 20.54 54.8093 21.24 52.6393 22.65C50.4593 24.06 48.8193 26.14 47.6993 28.9L25.5493 83.72C24.4993 86.32 24.4993 88.34 25.5593 89.77C26.6193 91.2 28.6393 91.92 31.6193 91.92H115.459L107.259 112.22L107.249 112.2Z" fill="black"/>
<path d="M144.519 112.2H121.279L166.609 0H189.849L144.519 112.2ZM228.349 112.2H205.109L226.239 59.89C227.239 57.41 227.229 55.53 226.199 54.24C225.169 52.95 223.109 52.31 220.009 52.31H178.089L185.749 33.34H227.669C229.869 33.34 232.109 33.55 234.389 33.96C236.659 34.37 238.829 35.02 240.889 35.89C242.949 36.77 244.799 37.9 246.449 39.28C248.089 40.67 249.349 42.34 250.229 44.31C251.099 46.28 251.519 48.55 251.499 51.13C251.469 53.71 250.799 56.63 249.479 59.88L228.349 112.19V112.2Z" fill="black"/>
<path d="M360.529 83.7C359.119 87.19 357.349 90.32 355.209 93.11C353.069 95.9 350.739 98.34 348.219 100.45C345.699 102.56 343.039 104.35 340.229 105.84C337.429 107.32 334.629 108.53 331.839 109.47C329.049 110.41 326.319 111.1 323.669 111.54C321.019 111.98 318.589 112.2 316.389 112.2H274.469C271.249 112.2 267.939 111.71 264.519 110.72C261.109 109.73 258.229 108.1 255.899 105.84C253.569 103.58 252.039 100.63 251.329 97.0201C250.619 93.4 251.329 88.97 253.449 83.71L264.559 56.2201C266.659 51.0101 269.529 46.6 273.169 42.98C276.809 39.36 280.699 36.42 284.869 34.16C289.029 31.9 293.219 30.2701 297.429 29.2801C301.639 28.2901 305.359 27.8 308.579 27.8H350.499C356.459 27.8 361.139 28.7401 364.559 30.6101C367.969 32.4801 370.389 34.84 371.799 37.68C373.219 40.5201 373.829 43.6 373.649 46.93C373.469 50.26 372.789 53.3601 371.639 56.2201L360.529 83.71V83.7ZM348.329 56.37C349.469 53.56 349.499 51.48 348.439 50.12C347.379 48.77 345.329 48.09 342.289 48.09H300.549C297.449 48.09 294.819 48.7801 292.649 50.16C290.479 51.54 288.859 53.56 287.789 56.21L276.679 83.7C275.609 86.35 275.589 88.3801 276.629 89.7901C277.669 91.2001 279.739 91.9001 282.839 91.9001H324.579C327.739 91.9001 330.369 91.2001 332.489 89.7901C334.609 88.3801 336.199 86.35 337.269 83.7L348.309 56.37H348.329Z" fill="black"/>
<path d="M483.389 83.7C481.979 87.19 480.209 90.32 478.069 93.11C475.929 95.9 473.599 98.34 471.079 100.45C468.559 102.56 465.899 104.35 463.089 105.84C460.289 107.32 457.489 108.53 454.699 109.47C451.909 110.41 449.199 111.1 446.579 111.54C443.959 111.98 441.539 112.2 439.339 112.2H397.419L405.619 91.9H447.539C450.639 91.9 453.249 91.2 455.359 89.79C457.479 88.38 459.069 86.35 460.139 83.7L471.179 56.37C472.319 53.56 472.369 51.48 471.339 50.12C470.309 48.77 468.269 48.09 465.229 48.09H423.489C420.329 48.09 417.669 48.78 415.499 50.16C413.329 51.54 411.709 53.56 410.639 56.21L377.359 138.59H354.119L387.399 56.21C388.809 52.72 390.579 49.6 392.699 46.84C394.829 44.08 397.169 41.65 399.719 39.54C402.269 37.43 404.949 35.64 407.749 34.15C410.549 32.67 413.349 31.46 416.139 30.52C418.929 29.58 421.649 28.89 424.309 28.45C426.959 28.01 429.359 27.79 431.499 27.79H473.419C477.409 27.79 480.809 28.23 483.609 29.12C486.409 30.01 488.719 31.18 490.549 32.63C492.369 34.09 493.749 35.78 494.669 37.71C495.589 39.64 496.159 41.65 496.379 43.76C496.599 45.87 496.529 47.99 496.179 50.12C495.819 52.25 495.259 54.29 494.479 56.21L483.369 83.7H483.389Z" fill="black"/>
</svg>
